<?xml version="1.0" encoding="UTF-8" standalone="no"?>
<svg
   xmlns:dc="http://purl.org/dc/elements/1.1/"
   xmlns:cc="http://creativecommons.org/ns#"
   xmlns:rdf="http://www.w3.org/1999/02/22-rdf-syntax-ns#"
   xmlns:svg="http://www.w3.org/2000/svg"
   xmlns="http://www.w3.org/2000/svg"
   xmlns:sodipodi="http://sodipodi.sourceforge.net/DTD/sodipodi-0.dtd"
   xmlns:inkscape="http://www.inkscape.org/namespaces/inkscape"
   width="700pt"
   height="700pt"
   version="1.1"
   viewBox="0 0 700 700"
   id="svg38"
   sodipodi:docname="liveos.svg"
   inkscape:version="0.92.5 (0.92.5+68)">
  <metadata
     id="metadata42">
    <rdf:RDF>
      <cc:Work
         rdf:about="">
        <dc:format>image/svg+xml</dc:format>
        <dc:type
           rdf:resource="http://purl.org/dc/dcmitype/StillImage" />
        <dc:title></dc:title>
      </cc:Work>
    </rdf:RDF>
  </metadata>
  <sodipodi:namedview
     pagecolor="#ffffff"
     bordercolor="#666666"
     borderopacity="1"
     objecttolerance="10"
     gridtolerance="10"
     guidetolerance="10"
     inkscape:pageopacity="0"
     inkscape:pageshadow="2"
     inkscape:window-width="1871"
     inkscape:window-height="1056"
     id="namedview40"
     showgrid="false"
     inkscape:pagecheckerboard="true"
     inkscape:zoom="0.25285714"
     inkscape:cx="-808.82581"
     inkscape:cy="1033.199"
     inkscape:window-x="49"
     inkscape:window-y="24"
     inkscape:window-maximized="1"
     inkscape:current-layer="svg38" />
  <defs
     id="defs20">
    <symbol
       id="f"
       overflow="visible">
      <path
         d="m39.078-2.3281c-2.0117 1.043-4.1094 1.8281-6.2969 2.3594s-4.4648 0.79688-6.8281 0.79688c-7.0859 0-12.699-1.9766-16.844-5.9375-4.1367-3.957-6.2031-9.3281-6.2031-16.109 0-6.7891 2.0664-12.164 6.2031-16.125 4.1445-3.9688 9.7578-5.9531 16.844-5.9531 2.3633 0 4.6406 0.26562 6.8281 0.79688s4.2852 1.3242 6.2969 2.375v8.7969c-2.0312-1.3828-4.0391-2.3984-6.0156-3.0469-1.9688-0.64453-4.0469-0.96875-6.2344-0.96875-3.9062 0-6.9844 1.2578-9.2344 3.7656-2.2422 2.5-3.3594 5.9531-3.3594 10.359 0 4.3867 1.1172 7.8359 3.3594 10.344 2.25 2.5 5.3281 3.75 9.2344 3.75 2.1875 0 4.2656-0.32031 6.2344-0.96875 1.9766-0.64453 3.9844-1.6602 6.0156-3.0469z"
         id="path2" />
    </symbol>
    <symbol
       id="e"
       overflow="visible">
      <path
         d="m16.031-40.953v9.0625h10.516v7.2812h-10.516v13.531c0 1.4805 0.28906 2.4805 0.875 3 0.59375 0.52344 1.7656 0.78125 3.5156 0.78125h5.2344v7.2969h-8.7344c-4.0312 0-6.8867-0.83594-8.5625-2.5156-1.6797-1.6875-2.5156-4.5391-2.5156-8.5625v-13.531h-5.0781v-7.2812h5.0781v-9.0625z"
         id="path5" />
    </symbol>
    <symbol
       id="d"
       overflow="visible">
      <path
         d="m26.594-27.234v-17.078h10.266v44.312h-10.266v-4.6094c-1.3984 1.875-2.9453 3.25-4.6406 4.125-1.6875 0.875-3.6406 1.3125-5.8594 1.3125-3.9297 0-7.1562-1.5625-9.6875-4.6875-2.5234-3.125-3.7812-7.1445-3.7812-12.062 0-4.9141 1.2578-8.9375 3.7812-12.062 2.5312-3.125 5.7578-4.6875 9.6875-4.6875 2.1953 0 4.1445 0.44531 5.8438 1.3281 1.707 0.88672 3.2578 2.2578 4.6562 4.1094zm-6.7188 20.656c2.1875 0 3.8516-0.79688 5-2.3906 1.1445-1.5938 1.7188-3.9102 1.7188-6.9531 0-3.0391-0.57422-5.3594-1.7188-6.9531-1.1484-1.5938-2.8125-2.3906-5-2.3906-2.168 0-3.8242 0.79688-4.9688 2.3906-1.1484 1.5938-1.7188 3.9141-1.7188 6.9531 0 3.043 0.57031 5.3594 1.7188 6.9531 1.1445 1.5938 2.8008 2.3906 4.9688 2.3906z"
         id="path8" />
    </symbol>
    <symbol
       id="c"
       overflow="visible">
      <path
         d="m21.875-6.5781c2.1758 0 3.8359-0.79688 4.9844-2.3906 1.1562-1.5938 1.7344-3.9102 1.7344-6.9531 0-3.0391-0.57812-5.3594-1.7344-6.9531-1.1484-1.5938-2.8086-2.3906-4.9844-2.3906-2.1875 0-3.8672 0.80469-5.0312 2.4062-1.168 1.6055-1.75 3.918-1.75 6.9375 0 3.0234 0.58203 5.3359 1.75 6.9375 1.1641 1.6055 2.8438 2.4062 5.0312 2.4062zm-6.7812-20.656c1.4062-1.8516 2.9609-3.2227 4.6719-4.1094 1.707-0.88281 3.6719-1.3281 5.8906-1.3281 3.9375 0 7.1641 1.5625 9.6875 4.6875 2.5195 3.125 3.7812 7.1484 3.7812 12.062 0 4.918-1.2617 8.9375-3.7812 12.062-2.5234 3.125-5.75 4.6875-9.6875 4.6875-2.2188 0-4.1836-0.44531-5.8906-1.3281-1.7109-0.88281-3.2656-2.2539-4.6719-4.1094v4.6094h-10.188v-44.312h10.188z"
         id="path11" />
    </symbol>
    <symbol
       id="b"
       overflow="visible">
      <path
         d="m5.3594-42.516h10.953v38.391c0 5.2891-1.4375 9.2422-4.3125 11.859-2.875 2.625-7.2266 3.9375-13.047 3.9375h-2.2344v-8.2812h1.7188c2.2695 0 3.9883-0.63672 5.1562-1.9062 1.1758-1.2734 1.7656-3.1406 1.7656-5.6094z"
         id="path14" />
    </symbol>
    <symbol
       id="a"
       overflow="visible">
      <path
         d="m4.9062-31.891h10.188v31.891h-10.188zm0-12.422h10.188v8.3125h-10.188z"
         id="path17" />
    </symbol>
    <symbol
       overflow="visible"
       id="h">
      <path
         id="path1054"
         d="m18.766-1.125c-0.96875 0.5-1.9805 0.875-3.0312 1.125-1.043 0.25781-2.1367 0.39062-3.2812 0.39062-3.3984 0-6.0898-0.94531-8.0781-2.8438-1.9922-1.9062-2.9844-4.4844-2.9844-7.7344 0-3.2578 0.99219-5.8359 2.9844-7.7344 1.9883-1.9062 4.6797-2.8594 8.0781-2.8594 1.1445 0 2.2383 0.13281 3.2812 0.39062 1.0508 0.25 2.0625 0.625 3.0312 1.125v4.2188c-0.98047-0.65625-1.9453-1.1406-2.8906-1.4531-0.94922-0.3125-1.9492-0.46875-3-0.46875-1.875 0-3.3516 0.60547-4.4219 1.8125-1.0742 1.1992-1.6094 2.8555-1.6094 4.9688 0 2.1055 0.53516 3.7617 1.6094 4.9688 1.0703 1.1992 2.5469 1.7969 4.4219 1.7969 1.0508 0 2.0508-0.14844 3-0.45312 0.94531-0.3125 1.9102-0.80078 2.8906-1.4688z" />
    </symbol>
    <symbol
       overflow="visible"
       id="c-3">
      <path
         id="path1057"
         d="m13.734-11.141c-0.4375-0.19531-0.87109-0.34375-1.2969-0.4375-0.41797-0.10156-0.83984-0.15625-1.2656-0.15625-1.2617 0-2.2305 0.40625-2.9062 1.2188-0.67969 0.80469-1.0156 1.9531-1.0156 3.4531v7.0625h-4.8906v-15.312h4.8906v2.5156c0.625-1 1.3438-1.7266 2.1562-2.1875 0.82031-0.46875 1.8008-0.70312 2.9375-0.70312 0.16406 0 0.34375 0.011719 0.53125 0.03125 0.19531 0.011719 0.47656 0.039062 0.84375 0.078125z" />
    </symbol>
    <symbol
       overflow="visible"
       id="a-6">
      <path
         id="path1060"
         d="m17.641-7.7031v1.4062h-11.453c0.125 1.1484 0.53906 2.0078 1.25 2.5781 0.70703 0.57422 1.7031 0.85938 2.9844 0.85938 1.0312 0 2.082-0.14844 3.1562-0.45312 1.082-0.3125 2.1914-0.77344 3.3281-1.3906v3.7656c-1.1562 0.4375-2.3125 0.76562-3.4688 0.98438-1.1562 0.22656-2.3125 0.34375-3.4688 0.34375-2.7734 0-4.9297-0.70312-6.4688-2.1094-1.5312-1.4062-2.2969-3.3789-2.2969-5.9219 0-2.5 0.75391-4.4609 2.2656-5.8906 1.5078-1.4375 3.582-2.1562 6.2188-2.1562 2.4062 0 4.332 0.73047 5.7812 2.1875 1.4453 1.4492 2.1719 3.3828 2.1719 5.7969zm-5.0312-1.625c0-0.92578-0.27344-1.6719-0.8125-2.2344-0.54297-0.57031-1.25-0.85938-2.125-0.85938-0.94922 0-1.7188 0.26562-2.3125 0.79688s-0.96484 1.2969-1.1094 2.2969z" />
    </symbol>
    <symbol
       overflow="visible"
       id="l">
      <path
         id="path1063"
         d="m9.2188-6.8906c-1.0234 0-1.793 0.17188-2.3125 0.51562-0.51172 0.34375-0.76562 0.85547-0.76562 1.5312 0 0.625 0.20703 1.1172 0.625 1.4688 0.41406 0.34375 0.98828 0.51562 1.7188 0.51562 0.92578 0 1.7031-0.32812 2.3281-0.98438 0.63281-0.66406 0.95312-1.4922 0.95312-2.4844v-0.5625zm7.4688-1.8438v8.7344h-4.9219v-2.2656c-0.65625 0.92969-1.3984 1.6055-2.2188 2.0312-0.82422 0.41406-1.8242 0.625-3 0.625-1.5859 0-2.8711-0.45703-3.8594-1.375-0.99219-0.92578-1.4844-2.1289-1.4844-3.6094 0-1.7891 0.61328-3.1016 1.8438-3.9375 1.2383-0.84375 3.1797-1.2656 5.8281-1.2656h2.8906v-0.39062c0-0.76953-0.30859-1.332-0.92188-1.6875-0.61719-0.36328-1.5703-0.54688-2.8594-0.54688-1.0547 0-2.0312 0.10547-2.9375 0.3125-0.89844 0.21094-1.7305 0.52344-2.5 0.9375v-3.7344c1.0391-0.25 2.0859-0.44141 3.1406-0.57812 1.0625-0.13281 2.125-0.20312 3.1875-0.20312 2.7578 0 4.75 0.54688 5.9688 1.6406 1.2266 1.0859 1.8438 2.8555 1.8438 5.3125z" />
    </symbol>
    <symbol
       overflow="visible"
       id="b-7">
      <path
         id="path1066"
         d="m7.7031-19.656v4.3438h5.0469v3.5h-5.0469v6.5c0 0.71094 0.14062 1.1875 0.42188 1.4375s0.83594 0.375 1.6719 0.375h2.5156v3.5h-4.1875c-1.9375 0-3.3125-0.39844-4.125-1.2031-0.80469-0.8125-1.2031-2.1797-1.2031-4.1094v-6.5h-2.4219v-3.5h2.4219v-4.3438z" />
    </symbol>
    <symbol
       overflow="visible"
       id="e-5">
      <path
         id="path1069"
         d="m12.766-13.078v-8.2031h4.9219v21.281h-4.9219v-2.2188c-0.66797 0.90625-1.4062 1.5703-2.2188 1.9844s-1.7578 0.625-2.8281 0.625c-1.8867 0-3.4336-0.75-4.6406-2.25-1.2109-1.5-1.8125-3.4258-1.8125-5.7812 0-2.3633 0.60156-4.2969 1.8125-5.7969 1.207-1.5 2.7539-2.25 4.6406-2.25 1.0625 0 2 0.21484 2.8125 0.64062 0.82031 0.42969 1.5664 1.0859 2.2344 1.9688zm-3.2188 9.9219c1.0391 0 1.8359-0.37891 2.3906-1.1406 0.55078-0.76953 0.82812-1.8828 0.82812-3.3438 0-1.457-0.27734-2.5664-0.82812-3.3281-0.55469-0.76953-1.3516-1.1562-2.3906-1.1562-1.043 0-1.8398 0.38672-2.3906 1.1562-0.55469 0.76172-0.82812 1.8711-0.82812 3.3281 0 1.4609 0.27344 2.5742 0.82812 3.3438 0.55078 0.76172 1.3477 1.1406 2.3906 1.1406z" />
    </symbol>
    <symbol
       overflow="visible"
       id="k">
      <path
         id="path1072"
         d="m10.5-3.1562c1.0508 0 1.8516-0.37891 2.4062-1.1406 0.55078-0.76953 0.82812-1.8828 0.82812-3.3438 0-1.457-0.27734-2.5664-0.82812-3.3281-0.55469-0.76953-1.3555-1.1562-2.4062-1.1562-1.0547 0-1.8594 0.38672-2.4219 1.1562-0.55469 0.77344-0.82812 1.8828-0.82812 3.3281 0 1.4492 0.27344 2.5586 0.82812 3.3281 0.5625 0.77344 1.3672 1.1562 2.4219 1.1562zm-3.25-9.9219c0.67578-0.88281 1.4219-1.5391 2.2344-1.9688 0.82031-0.42578 1.7656-0.64062 2.8281-0.64062 1.8945 0 3.4453 0.75 4.6562 2.25 1.207 1.5 1.8125 3.4336 1.8125 5.7969 0 2.3555-0.60547 4.2812-1.8125 5.7812-1.2109 1.5-2.7617 2.25-4.6562 2.25-1.0625 0-2.0078-0.21094-2.8281-0.625-0.8125-0.42578-1.5586-1.0859-2.2344-1.9844v2.2188h-4.8906v-21.281h4.8906z" />
    </symbol>
    <symbol
       overflow="visible"
       id="j">
      <path
         id="path1075"
         d="m0.34375-15.312h4.8906l4.125 10.391 3.5-10.391h4.8906l-6.4375 16.766c-0.64844 1.6953-1.4023 2.8828-2.2656 3.5625-0.86719 0.6875-2 1.0312-3.4062 1.0312h-2.8438v-3.2188h1.5312c0.83203 0 1.4375-0.13672 1.8125-0.40625 0.38281-0.26172 0.67969-0.73047 0.89062-1.4062l0.14062-0.42188z" />
    </symbol>
    <symbol
       overflow="visible"
       id="i">
      <path
         id="path1078"
         d="m14.953-3.7188h-8.2188l-1.3125 3.7188h-5.2812l7.5625-20.406h6.2656l7.5625 20.406h-5.2812zm-6.9062-3.7812h5.5781l-2.7812-8.125z" />
    </symbol>
    <symbol
       overflow="visible"
       id="u">
      <path
         id="path1081"
         d="m2.3594-15.312h4.8906v15.312h-4.8906zm0-5.9688h4.8906v4h-4.8906z" />
    </symbol>
    <symbol
       overflow="visible"
       id="g">
      <path
         id="path1084"
         d="m17.75-9.3281v9.3281h-4.9219v-7.1406c0-1.3203-0.03125-2.2344-0.09375-2.7344s-0.16797-0.86719-0.3125-1.1094c-0.1875-0.3125-0.44922-0.55469-0.78125-0.73438-0.32422-0.17578-0.69531-0.26562-1.1094-0.26562-1.0234 0-1.8242 0.39844-2.4062 1.1875-0.58594 0.78125-0.875 1.8711-0.875 3.2656v7.5312h-4.8906v-15.312h4.8906v2.2344c0.73828-0.88281 1.5195-1.5391 2.3438-1.9688 0.83203-0.42578 1.75-0.64062 2.75-0.64062 1.7695 0 3.1133 0.54688 4.0312 1.6406 0.91406 1.0859 1.375 2.6562 1.375 4.7188z" />
    </symbol>
    <symbol
       overflow="visible"
       id="d-3">
      <path
         id="path1087"
         d="m9.6406-12.188c-1.0859 0-1.9141 0.39062-2.4844 1.1719-0.57422 0.78125-0.85938 1.9062-0.85938 3.375s0.28516 2.5938 0.85938 3.375c0.57031 0.77344 1.3984 1.1562 2.4844 1.1562 1.0625 0 1.875-0.38281 2.4375-1.1562 0.57031-0.78125 0.85938-1.9062 0.85938-3.375s-0.28906-2.5938-0.85938-3.375c-0.5625-0.78125-1.375-1.1719-2.4375-1.1719zm0-3.5c2.6328 0 4.6914 0.71484 6.1719 2.1406 1.4766 1.418 2.2188 3.3867 2.2188 5.9062 0 2.5117-0.74219 4.4805-2.2188 5.9062-1.4805 1.418-3.5391 2.125-6.1719 2.125-2.6484 0-4.7148-0.70703-6.2031-2.125-1.4922-1.4258-2.2344-3.3945-2.2344-5.9062 0-2.5195 0.74219-4.4883 2.2344-5.9062 1.4883-1.4258 3.5547-2.1406 6.2031-2.1406z" />
    </symbol>
    <symbol
       overflow="visible"
       id="t">
      <path
         id="path1090"
         d="m9.5469-12.125c-1.043 0-1.8398 0.38672-2.3906 1.1562-0.55469 0.76172-0.82812 1.8711-0.82812 3.3281 0 1.4609 0.27344 2.5742 0.82812 3.3438 0.55078 0.76172 1.3477 1.1406 2.3906 1.1406 1.0391 0 1.8359-0.37891 2.3906-1.1406 0.55078-0.76953 0.82812-1.8828 0.82812-3.3438 0-1.457-0.27734-2.5664-0.82812-3.3281-0.55469-0.76953-1.3516-1.1562-2.3906-1.1562zm3.2188 9.9062c-0.66797 0.90625-1.4062 1.5703-2.2188 1.9844s-1.7578 0.625-2.8281 0.625c-1.8867 0-3.4336-0.75-4.6406-2.25-1.2109-1.5-1.8125-3.4258-1.8125-5.7812 0-2.3633 0.60156-4.2891 1.8125-5.7812 1.207-1.4883 2.7539-2.2344 4.6406-2.2344 1.0703 0 2.0156 0.21484 2.8281 0.64062 0.8125 0.41797 1.5508 1.0742 2.2188 1.9688v-2.2656h4.9219v21.141h-4.9219z" />
    </symbol>
    <symbol
       overflow="visible"
       id="f-5">
      <path
         id="path1093"
         d="m2.1875-5.9688v-9.3438h4.9219v1.5312c0 0.83594-0.007813 1.875-0.015625 3.125-0.011719 1.25-0.015625 2.0859-0.015625 2.5 0 1.2422 0.03125 2.1328 0.09375 2.6719 0.070313 0.54297 0.17969 0.93359 0.32812 1.1719 0.20703 0.32422 0.47266 0.57422 0.79688 0.75 0.32031 0.16797 0.69141 0.25 1.1094 0.25 1.0195 0 1.8203-0.39062 2.4062-1.1719 0.58203-0.78125 0.875-1.8672 0.875-3.2656v-7.5625h4.8906v15.312h-4.8906v-2.2188c-0.74219 0.89844-1.5234 1.5586-2.3438 1.9844-0.82422 0.41406-1.7344 0.625-2.7344 0.625-1.7617 0-3.1055-0.53906-4.0312-1.625-0.92969-1.082-1.3906-2.6602-1.3906-4.7344z" />
    </symbol>
    <symbol
       overflow="visible"
       id="s">
      <path
         id="path1096"
         d="m12.422-21.281v3.2188h-2.7031c-0.6875 0-1.1719 0.125-1.4531 0.375-0.27344 0.25-0.40625 0.6875-0.40625 1.3125v1.0625h4.1875v3.5h-4.1875v11.812h-4.8906v-11.812h-2.4375v-3.5h2.4375v-1.0625c0-1.6641 0.46094-2.8984 1.3906-3.7031 0.92578-0.80078 2.3672-1.2031 4.3281-1.2031z" />
    </symbol>
    <symbol
       overflow="visible"
       id="r">
      <path
         id="path1099"
         d="m16.547-12.766c0.61328-0.94531 1.3477-1.6719 2.2031-2.1719 0.85156-0.5 1.7891-0.75 2.8125-0.75 1.7578 0 3.0977 0.54688 4.0156 1.6406 0.92578 1.0859 1.3906 2.6562 1.3906 4.7188v9.3281h-4.9219v-7.9844-0.35938c0.007813-0.13281 0.015625-0.32031 0.015625-0.5625 0-1.082-0.16406-1.8633-0.48438-2.3438-0.3125-0.48828-0.82422-0.73438-1.5312-0.73438-0.92969 0-1.6484 0.38672-2.1562 1.1562-0.51172 0.76172-0.77344 1.8672-0.78125 3.3125v7.5156h-4.9219v-7.9844c0-1.6953-0.14844-2.7852-0.4375-3.2656-0.29297-0.48828-0.8125-0.73438-1.5625-0.73438-0.9375 0-1.6641 0.38672-2.1719 1.1562-0.51172 0.76172-0.76562 1.8594-0.76562 3.2969v7.5312h-4.9219v-15.312h4.9219v2.2344c0.60156-0.86328 1.2891-1.5156 2.0625-1.9531 0.78125-0.4375 1.6406-0.65625 2.5781-0.65625 1.0625 0 2 0.25781 2.8125 0.76562 0.8125 0.51172 1.4258 1.2305 1.8438 2.1562z" />
    </symbol>
    <symbol
       overflow="visible"
       id="q">
      <path
         id="path1102"
         d="m17.75-9.3281v9.3281h-4.9219v-7.1094c0-1.3438-0.03125-2.2656-0.09375-2.7656s-0.16797-0.86719-0.3125-1.1094c-0.1875-0.3125-0.44922-0.55469-0.78125-0.73438-0.32422-0.17578-0.69531-0.26562-1.1094-0.26562-1.0234 0-1.8242 0.39844-2.4062 1.1875-0.58594 0.78125-0.875 1.8711-0.875 3.2656v7.5312h-4.8906v-21.281h4.8906v8.2031c0.73828-0.88281 1.5195-1.5391 2.3438-1.9688 0.83203-0.42578 1.75-0.64062 2.75-0.64062 1.7695 0 3.1133 0.54688 4.0312 1.6406 0.91406 1.0859 1.375 2.6562 1.375 4.7188z" />
    </symbol>
    <symbol
       overflow="visible"
       id="p">
      <path
         id="path1105"
         d="m2.5781-20.406h5.875l7.4219 14v-14h4.9844v20.406h-5.875l-7.4219-14v14h-4.9844z" />
    </symbol>
    <symbol
       overflow="visible"
       id="o">
      <path
         id="path1108"
         d="m2.5781-20.406h8.7344c2.5938 0 4.582 0.57812 5.9688 1.7344 1.3945 1.1484 2.0938 2.7891 2.0938 4.9219 0 2.1367-0.69922 3.7812-2.0938 4.9375-1.3867 1.1562-3.375 1.7344-5.9688 1.7344h-3.4844v7.0781h-5.25zm5.25 3.8125v5.7031h2.9219c1.0195 0 1.8047-0.25 2.3594-0.75 0.5625-0.5 0.84375-1.2031 0.84375-2.1094 0-0.91406-0.28125-1.6172-0.84375-2.1094-0.55469-0.48828-1.3398-0.73438-2.3594-0.73438z" />
    </symbol>
    <symbol
       overflow="visible"
       id="n">
      <path
         id="path1111"
         d="m2.3594-15.312h4.8906v15.031c0 2.0508-0.49609 3.6172-1.4844 4.7031-0.98047 1.082-2.4062 1.625-4.2812 1.625h-2.4219v-3.2188h0.85938c0.92578 0 1.5625-0.21094 1.9062-0.625 0.35156-0.41797 0.53125-1.2461 0.53125-2.4844zm0-5.9688h4.8906v4h-4.8906z" />
    </symbol>
    <symbol
       overflow="visible"
       id="m">
      <path
         id="path1114"
         d="m14.719-14.828v3.9844c-0.65625-0.45703-1.3242-0.79688-2-1.0156-0.66797-0.21875-1.3594-0.32812-2.0781-0.32812-1.3672 0-2.4336 0.40234-3.2031 1.2031-0.76172 0.79297-1.1406 1.9062-1.1406 3.3438 0 1.4297 0.37891 2.543 1.1406 3.3438 0.76953 0.79297 1.8359 1.1875 3.2031 1.1875 0.75781 0 1.4844-0.10938 2.1719-0.32812 0.6875-0.22656 1.3203-0.56641 1.9062-1.0156v4c-0.76172 0.28125-1.5391 0.48828-2.3281 0.625-0.78125 0.14453-1.5742 0.21875-2.375 0.21875-2.7617 0-4.9219-0.70703-6.4844-2.125-1.5547-1.4141-2.3281-3.3828-2.3281-5.9062 0-2.5312 0.77344-4.5039 2.3281-5.9219 1.5625-1.4141 3.7227-2.125 6.4844-2.125 0.80078 0 1.5938 0.074219 2.375 0.21875 0.78125 0.13672 1.5547 0.35156 2.3281 0.64062z" />
    </symbol>
  </defs>
  <g
     id="g857"
     transform="matrix(1.1800847,0,0,1.1800847,-190.57204,-500.59323)"
     inkscape:export-xdpi="51.43"
     inkscape:export-ydpi="51.43"
     style="fill:#ffffff">
    <path
       d="M 191.34,0 C 124.121,0 70,54.121 70,121.34 V 438.66 C 70,505.879 124.121,560 191.34,560 H 508.66 C 575.879,560 630,505.879 630,438.66 V 121.34 C 630,54.121 575.879,0 508.66,0 Z m 232.71,125.94 c 1.5156,0 3.0273,0.54297 4.125,1.6406 l 74.262,74.262 c 2.2734,2.2734 2.2734,5.9727 0,8.2461 l -45.391,45.367 12.395,12.375 c 2.2773,2.2734 2.2773,5.9727 0,8.25 l -140.25,140.25 c -10.23,10.23 -23.668,15.336 -37.117,15.336 -13.453,0 -26.91,-5.1055 -37.145,-15.336 l -41.219,-41.242 c -9.918,-9.918 -15.383,-23.121 -15.383,-37.145 0,-14.023 5.4531,-27.203 15.383,-37.117 l 140.23,-140.25 c 2.1836,-2.1953 6.0547,-2.1953 8.25,0 l 12.371,12.395 45.371,-45.391 c 1.0898,-1.0977 2.6055,-1.6406 4.1211,-1.6406 z m 0,14.035 -41.242,41.242 65.988,65.992 41.246,-41.242 z m -8.2461,27.164 c 1.4922,0 2.9961,0.54688 4.1445,1.6836 l 8.25,8.2734 c 2.2734,2.2734 2.2734,5.9727 0,8.2461 -1.1445,1.1328 -2.6523,1.7109 -4.1484,1.7109 -1.4922,0 -2.9805,-0.56641 -4.1211,-1.7109 l -8.25,-8.2695 c -2.2773,-2.2773 -2.2773,-5.9727 0,-8.25 1.1367,-1.1367 2.6289,-1.6836 4.125,-1.6836 z m -57.742,5.832 -136.1,136.1 c -7.7148,7.7148 -11.965,17.965 -11.965,28.871 0,10.91 4.25,21.184 11.965,28.895 l 41.219,41.242 c 15.926,15.914 41.84,15.926 57.766,0 l 136.12,-136.12 -12.375,-12.375 -74.262,-74.238 v -0.0195 z m 90.758,27.16 c 1.4922,0 2.9883,0.57031 4.125,1.7109 l 8.25,8.2461 c 2.2734,2.2773 2.2734,5.9766 0,8.25 -1.1445,1.1328 -2.6328,1.707 -4.125,1.707 -1.4922,0 -2.9805,-0.5625 -4.125,-1.707 l -8.25,-8.25 c -2.2734,-2.2734 -2.2734,-5.9727 0,-8.2461 1.1406,-1.1406 2.6328,-1.7109 4.125,-1.7109 z m -199.97,110.2 c 0.74609,-0.10547 1.5352,-0.0664 2.3008,0.13672 3.1133,0.82812 4.9531,4.0195 4.125,7.1328 -4.3047,16.066 0.32812,33.324 12.078,45.07 11.746,11.75 29.051,16.395 45.07,12.102 3.1484,-0.83984 6.2891,0.99609 7.1523,4.125 0.83203,3.1016 -1.0078,6.3008 -4.1211,7.1328 -4.9609,1.3164 -10,1.9805 -15.02,1.9805 -15.293,0 -30.273,-6.0078 -41.332,-17.066 -14.688,-14.688 -20.477,-36.273 -15.109,-56.352 0.63281,-2.3359 2.6133,-3.9453 4.8555,-4.2617 z m 22.512,6.0156 c 0.75391,-0.10547 1.5391,-0.0625 2.3242,0.13672 3.1172,0.83984 4.9414,4.0391 4.1016,7.1562 -2.1445,8.0273 0.18359,16.656 6.0625,22.535 5.8906,5.8672 14.508,8.1953 22.535,6.0391 3.1367,-0.80469 6.3164,1.0078 7.1562,4.125 0.82812,3.1016 -1.0352,6.3242 -4.1484,7.1523 -2.9648,0.80469 -5.9805,1.1875 -9,1.1875 -9.1836,0 -18.164,-3.6172 -24.816,-10.277 -8.8086,-8.8086 -12.277,-21.777 -9.0469,-33.816 0.625,-2.3281 2.5781,-3.9219 4.832,-4.2383 z m 29.145,1.6641 c 3.0391,0.043 5.9414,1.2695 8.0898,3.418 4.5547,4.5547 4.5547,11.941 0,16.496 -4.5547,4.5547 -11.941,4.5547 -16.5,0 -4.5547,-4.5547 -4.5547,-11.941 0,-16.496 2.2266,-2.2266 5.2617,-3.4609 8.4102,-3.418 z"
       id="path22"
       inkscape:connector-curvature="0"
       style="fill:#ffffff" />
  </g>
  <path
     style="opacity:1;vector-effect:none;fill:#ffffff;fill-opacity:0.99678458;stroke:none;stroke-width:7.55905533;stroke-linecap:butt;stroke-linejoin:miter;stroke-miterlimit:4;stroke-dasharray:15.11811031, 7.55905516;stroke-dashoffset:75.59055328;stroke-opacity:1"
     d="M -1099.4355 -692.08984 C -1208.9836 -692.08984 -1297.1758 -603.89763 -1297.1758 -494.34961 L -1297.1758 7.9101562 C -1297.1758 117.45818 -1208.9836 205.65039 -1099.4355 205.65039 L -1024.0254 205.65039 L -1100.0312 114.07812 C -1107.9974 104.11619 -1111.9818 92.167414 -1109.9902 79.550781 C -1107.9995 66.934148 -1101.3609 55.647465 -1090.7363 49.005859 C -1073.4743 37.056161 -1049.5722 39.711 -1034.9648 54.318359 L -990.47852 98.140625 C -988.48696 100.13217 -985.8275 100.133 -983.83594 99.470703 C -981.18207 98.808391 -979.85352 96.812071 -979.85352 94.158203 L -979.85352 -174.75 C -979.85352 -198.65295 -960.60023 -218.57422 -936.69727 -218.57422 C -925.40503 -218.57422 -914.11857 -213.92326 -906.15234 -205.95703 C -898.18576 -197.98582 -893.53516 -187.36122 -893.53516 -175.41211 L -893.53516 -29.337891 C -885.56988 -41.953574 -871.62562 -49.919922 -856.35547 -49.919922 C -831.78499 -49.919922 -812.53125 -30.000609 -812.53125 -6.0976562 L -812.53125 -4.7675781 C -804.56597 -17.383262 -790.61976 -25.349609 -775.34961 -25.349609 C -750.77913 -25.349609 -731.52734 -5.4283438 -731.52734 18.474609 L -731.52734 19.802734 C -723.56206 7.1870503 -709.61585 -0.77929688 -694.3457 -0.77929688 C -670.44276 -0.77929687 -651.18945 18.474 -651.18945 42.376953 L -651.84961 162.54688 C -651.84961 177.42764 -654.03815 191.90809 -658.28516 205.65039 L -597.17578 205.65039 C -487.62776 205.65039 -399.43555 117.45818 -399.43555 7.9101562 L -399.43555 -494.34961 C -399.43555 -603.89763 -487.62776 -692.08984 -597.17578 -692.08984 L -1099.4355 -692.08984 z M -658.28516 205.65039 L -1024.0254 205.65039 L -989.81055 246.87305 C -958.60391 284.72177 -912.78892 305.96484 -863.65625 305.96484 L -795.26758 305.96484 C -756.75727 305.96484 -720.90369 291.35877 -693.67969 264.13477 C -676.97499 247.43007 -665.02943 227.47324 -658.28516 205.65039 z M -1137.9004 -590.23047 L -1109.543 -590.23047 L -1109.543 -576.05273 L -1095.3633 -576.05273 L -1095.3633 -561.87305 L -1081.1836 -561.87305 L -1081.1836 -547.69336 L -1067.0059 -547.69336 L -1067.0059 -533.51562 L -1052.8262 -533.51562 L -1052.8262 -391.72461 L -1081.1836 -391.72461 L -1081.1836 -448.44141 L -1166.2578 -448.44141 L -1166.2578 -391.72461 L -1194.6152 -391.72461 L -1194.6152 -533.51562 L -1180.4375 -533.51562 L -1180.4375 -547.69336 L -1166.2578 -547.69336 L -1166.2578 -561.87305 L -1152.0781 -561.87305 L -1152.0781 -576.05273 L -1137.9004 -576.05273 L -1137.9004 -590.23047 z M -1024.4688 -590.23047 L -911.03516 -590.23047 L -911.03516 -576.05273 L -896.85742 -576.05273 L -896.85742 -561.87305 L -882.67773 -561.87305 L -882.67773 -505.1582 L -896.85742 -505.1582 L -896.85742 -490.97852 L -911.03516 -490.97852 L -911.03516 -476.79883 L -939.39453 -476.79883 L -939.39453 -462.62109 L -925.21484 -462.62109 L -925.21484 -448.44141 L -911.03516 -448.44141 L -911.03516 -434.26172 L -896.85742 -434.26172 L -896.85742 -420.08398 L -882.67773 -420.08398 L -882.67773 -391.72461 L -911.03516 -391.72461 L -911.03516 -405.9043 L -925.21484 -405.9043 L -925.21484 -420.08398 L -939.39453 -420.08398 L -939.39453 -434.26172 L -953.57227 -434.26172 L -953.57227 -448.44141 L -967.75195 -448.44141 L -967.75195 -462.62109 L -981.93164 -462.62109 L -981.93164 -476.79883 L -996.10938 -476.79883 L -996.10938 -391.72461 L -1024.4688 -391.72461 L -1024.4688 -590.23047 z M -854.32031 -590.23047 L -712.5293 -590.23047 L -712.5293 -561.87305 L -769.24609 -561.87305 L -769.24609 -391.72461 L -797.60352 -391.72461 L -797.60352 -561.87305 L -854.32031 -561.87305 L -854.32031 -590.23047 z M -996.10938 -561.87305 L -996.10938 -505.1582 L -925.21484 -505.1582 L -925.21484 -519.33594 L -911.03516 -519.33594 L -911.03516 -547.69336 L -925.21484 -547.69336 L -925.21484 -561.87305 L -996.10938 -561.87305 z M -1137.9004 -547.69336 L -1137.9004 -533.51562 L -1152.0781 -533.51562 L -1152.0781 -519.33594 L -1166.2578 -519.33594 L -1166.2578 -476.79883 L -1081.1836 -476.79883 L -1081.1836 -519.33594 L -1095.3633 -519.33594 L -1095.3633 -533.51562 L -1109.543 -533.51562 L -1109.543 -547.69336 L -1137.9004 -547.69336 z M -578 -529.69531 A 36.475478 36.475478 0 0 1 -541.52539 -493.2207 A 36.475478 36.475478 0 0 1 -578 -456.74414 A 36.475478 36.475478 0 0 1 -614.47461 -493.2207 A 36.475478 36.475478 0 0 1 -578 -529.69531 z M -936.02734 -325.46289 C -853.69376 -325.46289 -786.63477 -258.4039 -786.63477 -176.07031 C -786.63477 -156.81753 -789.95586 -138.22723 -797.25977 -120.29883 C -799.25133 -115.64878 -803.23471 -112.99414 -807.88477 -112.99414 C -809.21401 -112.99414 -810.53795 -112.99395 -811.86719 -113.65625 C -817.84649 -115.64698 -821.16168 -122.289 -818.50781 -128.26367 C -812.53325 -143.53857 -809.21289 -159.47171 -809.21289 -175.4082 C -809.21289 -245.12277 -865.65379 -301.5585 -935.36719 -301.5625 C -1005.0841 -301.5625 -1062.1855 -244.46227 -1062.1855 -174.74414 C -1062.1855 -158.80647 -1058.8653 -142.86975 -1052.8906 -127.59961 C -1050.8992 -122.2876 -1053.5585 -115.64606 -1059.5332 -112.99219 L -1059.5273 -112.99219 C -1065.5021 -111.00075 -1072.143 -113.6601 -1074.7969 -119.63477 C -1081.4384 -137.55843 -1085.4219 -156.15346 -1085.4219 -175.40625 C -1085.4219 -257.74221 -1018.3657 -324.80058 -936.02734 -325.46289 z M -936.0293 -271.67969 C -882.91044 -271.67969 -839.75586 -228.5251 -839.75586 -175.40625 C -839.75586 -166.11065 -840.42231 -157.47795 -843.07617 -149.51172 C -844.40541 -144.86629 -849.05112 -141.54492 -853.70117 -141.54492 C -855.03041 -141.54492 -855.69224 -141.54474 -857.02148 -142.20703 C -863.00067 -143.53616 -866.3161 -150.17305 -865.64453 -156.15234 C -863.65296 -162.1269 -862.99023 -168.10233 -862.99023 -175.40625 C -862.99023 -215.24688 -896.18918 -248.44531 -936.69141 -248.44531 C -977.19363 -248.44531 -1010.3926 -215.90848 -1010.3926 -175.40625 C -1010.3926 -168.10257 -1009.7298 -161.4647 -1007.7383 -156.15234 C -1005.7468 -150.17281 -1009.0683 -144.19859 -1015.043 -142.20703 C -1021.0225 -140.21559 -1026.9967 -143.53704 -1028.9883 -149.51172 C -1030.9798 -157.47819 -1032.3086 -166.11089 -1032.3086 -175.40625 C -1032.3086 -228.5251 -989.15291 -271.67969 -936.0293 -271.67969 z "
     transform="scale(0.75000002)"
     id="rect1296"
     inkscape:export-xdpi="51.43"
     inkscape:export-ydpi="51.43" />
  <g
     aria-label="ART"
     style="font-style:normal;font-variant:normal;font-weight:normal;font-stretch:normal;font-size:50.25911331px;line-height:125%;font-family:'VCR OSD Mono';-inkscape-font-specification:'VCR OSD Mono';text-align:center;letter-spacing:0px;word-spacing:0px;text-anchor:middle;fill:#000000;fill-opacity:1;stroke:#000000;stroke-width:1.25647783px;stroke-linecap:butt;stroke-linejoin:miter;stroke-opacity:1"
     id="text1305"
     inkscape:export-xdpi="51.43"
     inkscape:export-ydpi="51.43" />
  <g
     transform="matrix(0.88924678,0,0,0.88924678,-971.43152,598.95121)"
     id="g1321">
    <path
       inkscape:connector-curvature="0"
       d="m 543.2,323.68 c 0,-20.16 -16.238,-36.398 -36.398,-36.398 -12.879,0 -24.641,6.7188 -31.359,17.359 v -1.1211 c 0,-20.16 -16.238,-36.961 -36.961,-36.961 -12.879,0 -24.641,6.7188 -31.359,17.359 v -1.1211 c 0,-20.16 -16.238,-36.961 -36.961,-36.961 -12.879,0 -24.641,6.7188 -31.359,17.359 v -123.2 c 0,-10.078 -3.9219,-19.039 -10.641,-25.762 -6.7188,-6.7188 -16.238,-10.641 -25.762,-10.641 -20.16,0 -36.398,16.801 -36.398,36.961 v 226.8 c 0,2.2383 -1.1211,3.9219 -3.3594,4.4805 -1.6797,0.55859 -3.9219,0.55859 -5.6016,-1.1211 l -37.52,-36.961 c -12.32,-12.32 -32.48,-14.559 -47.039,-4.4805 -8.9609,5.6016 -14.559,15.121 -16.238,25.762 -1.6797,10.641 1.6797,20.719 8.3984,29.121 l 92.961,112 c 26.32,31.922 64.961,49.84 106.4,49.84 h 57.68 c 32.48,0 62.719,-12.32 85.68,-35.281 22.961,-22.961 35.281,-53.199 35.281,-85.68 z"
       id="path1315" />
    <path
       inkscape:connector-curvature="0"
       d="m 369.6,168 c 1.1211,0.55859 1.6797,0.55859 2.8008,0.55859 3.9219,0 7.8398,-2.8008 8.9609,-6.7188 2.2383,-6.7188 2.8008,-14 2.8008,-21.84 0,-44.801 -36.398,-81.199 -81.199,-81.199 -44.805,0 -81.203,36.398 -81.203,81.199 0,7.8398 1.1211,15.121 2.8008,21.84 1.6797,5.0391 6.7188,7.8398 11.762,6.1602 5.0391,-1.6797 7.8398,-6.7188 6.1602,-11.762 -1.6797,-4.4805 -2.2383,-10.078 -2.2383,-16.238 0,-34.16 28,-61.602 62.16,-61.602 34.16,0 62.16,28 62.16,61.602 0,6.1602 -0.55859,11.199 -2.2383,16.238 -0.56641,5.043 2.2305,10.641 7.2734,11.762 z"
       id="path1317" />
    <path
       inkscape:connector-curvature="0"
       d="m 198.8,192.64 c 5.0391,-2.2383 7.2812,-7.8398 5.6016,-12.32 -5.0391,-12.879 -7.8398,-26.32 -7.8398,-39.762 0,-58.801 48.16,-106.96 106.96,-106.96 58.797,0.0039 106.4,47.602 106.4,106.4 0,13.441 -2.8008,26.879 -7.8398,39.762 -2.2383,5.0391 0.55859,10.641 5.6016,12.32 1.1211,0.55859 2.2383,0.55859 3.3594,0.55859 3.9219,0 7.2812,-2.2383 8.9609,-6.1602 6.1602,-15.121 8.9609,-30.801 8.9609,-47.039 0,-69.441 -56.559,-126 -126,-126 -69.445,0.55859 -126,57.117 -126,126.56 0,16.238 3.3594,31.922 8.9609,47.039 2.2383,5.0391 7.8398,7.2812 12.879,5.6016 z"
       id="path1319" />
  </g>
  <text
     xml:space="preserve"
     style="font-style:normal;font-variant:normal;font-weight:normal;font-stretch:normal;font-size:46.78387833px;line-height:125%;font-family:'VCR OSD Mono';-inkscape-font-specification:'VCR OSD Mono';text-align:center;letter-spacing:0px;word-spacing:0px;text-anchor:middle;fill:#000000;fill-opacity:1;stroke:#000000;stroke-width:1.16959703px;stroke-linecap:butt;stroke-linejoin:miter;stroke-opacity:1"
     x="-742.72363"
     y="560.76709"
     id="text1325"><tspan
       sodipodi:role="line"
       id="tspan1323"
       x="-742.72363"
       y="560.76709"
       style="font-size:202.73014832px;fill:#000000;stroke:#000000;stroke-width:1.16959703px">ART</tspan></text>
  <circle
     r="45.894745"
     cy="485.08475"
     cx="-448.5"
     id="circle1327"
     style="opacity:1;vector-effect:none;fill:#000000;fill-opacity:0.99678458;stroke:none;stroke-width:1.82752991;stroke-linecap:butt;stroke-linejoin:miter;stroke-miterlimit:4;stroke-dasharray:3.65505989, 1.82752994;stroke-dashoffset:75.59055328;stroke-opacity:1" />
</svg>
